# xmcd
#
# Track frame offsets: 
#        150
#        4205
#        19354
#        34092
#        50066
#        61411
#        78658
#        93861
#        105134
#        117817
#        128113
#        138874
#        153981
#        163385
#        175932
#        187319
#        202075
#        217055
#        229927
#        240382
#        254856
#        265628
#        274871
#
# Disc length: 3781 seconds
#
# Revision: 3
# Processed by: cddbd v1.5.2PL0 Copyright (c) Steve Scherf et al.
# Submitted via: ExactAudioCopy v0.99pb4
#
DISCID=510ec317
DTITLE=King Cole Trio - Transcriptions [disc 1]
DYEAR=2005
DGENRE=Swing
TTITLE0=F.S.T. [opening theme]
TTITLE1=Just You, Just Me
TTITLE2=I've Got the World on a String
TTITLE3=Rex Rhumba
TTITLE4=But She's My Buddy's Chick
TTITLE5=Chant of the Blues (Dog-Gone Unlucky Blues)
TTITLE6=Rock-A-Bye Basie
TTITLE7=Lester Leaps In
TTITLE8=I Don't Know Why (I Just Do) [1st ver.]
TTITLE9=I Want to Be Happy
TTITLE10=I Know That You Know
TTITLE11=Just You, Just Me [alt.]
TTITLE12=F.S.T. [closing theme]
TTITLE13=I Don't Know Why (I Just Do)
TTITLE14=This Way Out
TTITLE15=Baby, Baby, All the Time
TTITLE16=Somebody Loves Me
TTITLE17=Too Marvelous for Words
TTITLE18=Honeysuckle Rose
TTITLE19=How Does It Feel?
TTITLE20=Loan Me Two till Tuesday
TTITLE21=What Can I Say After I Say I'm Sorry
TTITLE22=You Name It
EXTD=Nat King Cole [Nathaniel Adams Coles] (1919/1965): piano, vocals\n
EXTD=Oscar Moore (1916/1981) (discs I and II), Irving Ashby (1920/1987) 
EXTD=[CDIII): guitar\nJohnny Miller (1915/1988) (I, II and III/trac
EXTD=ks 1-6), Joe Comfort (1917/1988) (III/7-23): bass\nJack Costanzo 
EXTD=(b.1922) (III/7-23): congas, bongos\nRecorded at Radio Recorders,
EXTD=Los Angeles US-CA, 1946-03-20 (I/1-13), 1946-04-11 (I/14-23), 19
EXTD=46-04-18 (II/1-8), 1946-04-24 (II/9-11), 1946-04-25 (II/12-18), 1
EXTD=947-07-02 (II/20,21), 1947-08-06 (II/23), 1947-08-15 (II/24), 194
EXTD=7-08-27 (II/25), and 1947-08-29 (II/22).\nRecorded in New York US
EXTD=NY, 1947-12-30 (II/19), 1947-10-28 (III/1,2), 1947-11-03 (III/3)
EXTD=, 1947-11-06 (III/4), 1947-11-07 (III/5), 1947-11-29 (III/6), and
EXTD=1950-03-09 (III/15-23).\nRecorded at Capitol Melrose Studios, Lo
EXTD=s Angeles US-CA, 1949-07-26 (III/7-14).\nTracks I/1,13 and III/20
EXTD=23 dubbed from Capitol Transcription pressings - all other tracks
EXTD=transferred from original lacquer or tape masters.\nCompilation 
EXTD=producer: Michael Cuscuna\nExecutive producer: Carole Cole\nSuper
EXTD=vising producer: Rob Christie\nMastered by Malcolm Addey at Malco
EXTD=lm Addey Studio, New York US-NY.\n3CD: EMI/Blue Note 60184 (2005-
EXTD=11-08), UPC 724356018426.
EXTT0=(Nat Cole)
EXTT1=(Jesse Greer/Raymond Klages)
EXTT2=(Harold Arlen/Ted Koehler)
EXTT3=(Nat Cole)
EXTT4=(Sy Oliver/Charles Atkinson)
EXTT5=(Nat Cole)
EXTT6=(Count Basie/Lester Young/Shad Collins)
EXTT7=(Lester Young)
EXTT8=(Roy Turk/Fred E. Ahlert)
EXTT9=(Irving Caesar/Vincent Youmans)
EXTT10=(Otto Harbach/Vincent Youmans/Anne Caldwell)
EXTT11=(Jesse Greer/Raymond Klages)
EXTT12=(Nat Cole)
EXTT13=(Roy Turk/Fred E. Ahlert)
EXTT14=(Nat Cole)
EXTT15=(Bobby Troup)
EXTT16=(George Gershwin/Buddy DeSylva/Ballard MacDonald)
EXTT17=(Richard Whiting/Johnny Mercer)
EXTT18=(Fats Waller/Andy Razaf)
EXTT19=(Roy Alfred/Marvin Fisher)
EXTT20=(Taps Miller)
EXTT21=(Walter Donaldson/Abe Lyman]\nAKA "What Can I Say".
EXTT22=(Nat Cole)
PLAYORDER=
